<svg version="1.2" baseProfile="tiny-ps" xmlns="http://www.w3.org/2000/svg" viewBox="0 0 722 707" width="722" height="707">
	<title>Landing Page Illustration-ai</title>
	<style>
		tspan { white-space:pre }
		.shp0 { fill: #1d3557 } 
		.shp1 { fill: #fbfbfb } 
		.shp2 { fill: #e63946 } 
		.shp3 { fill: #ffffff } 
	</style>
	<g id="Disk">
		<g id="Disk 1 ">
			<path id="Ellipse 19" class="shp0" d="M248.17 174.82C285.86 174.82 316.42 205.35 316.42 243.02C316.42 280.68 285.86 311.22 248.17 311.22C210.48 311.22 179.92 280.68 179.92 243.02C179.92 205.35 210.48 174.82 248.17 174.82Z" />
			<path id="Ellipse 20" class="shp1" d="M247.17 212.93C263.24 212.93 276.27 225.95 276.27 242.01C276.27 258.08 263.24 271.1 247.17 271.1C231.09 271.1 218.06 258.08 218.06 242.01C218.06 225.95 231.09 212.93 247.17 212.93Z" />
			<path id="Ellipse 21" class="shp2" d="M247.17 216.94C261.02 216.94 272.26 228.17 272.26 242.01C272.26 255.86 261.02 267.09 247.17 267.09C233.31 267.09 222.07 255.86 222.07 242.01C222.07 228.17 233.31 216.94 247.17 216.94Z" />
			<path id="Ellipse 22" class="shp3" d="M247.17 237C250.49 237 253.19 239.69 253.19 243.02C253.19 246.34 250.49 249.03 247.17 249.03C243.84 249.03 241.14 246.34 241.14 243.02C241.14 239.69 243.84 237 247.17 237Z" />
		</g>
	</g>
</svg>