<svg version="1.2" baseProfile="tiny-ps" xmlns="http://www.w3.org/2000/svg" viewBox="0 0 722 707" width="722" height="707">
	<title>Landing Page Illustration-ai</title>
	<style>
		tspan { white-space:pre }
		.shp0 { fill: #1d3557 } 
		.shp1 { fill: #2b4d77 } 
	</style>
	<g id="Illustration">
		<g id="Leaf2">
			<path id="&lt;Path&gt;" class="shp0" d="M612.28 554.62C608.55 558.63 604.71 562.59 600.77 566.48C598.27 563.96 596.17 561.04 594.63 557.81C600.62 559.12 607.09 557.87 612.28 554.62Z" />
			<path id="&lt;Path&gt;" class="shp0" d="M619.71 546.46C620.27 544.97 620.43 543.4 619.93 541.88C619.09 539.35 616.64 537.73 614.19 536.7C599.74 530.66 583.48 539.06 567.83 538.78C553 538.51 538.63 529.67 531.73 516.55C531.26 515.66 530.82 514.71 530.8 513.7C530.76 511.26 533.27 509.46 535.69 509.19C538.11 508.92 540.51 509.69 542.91 510.04C550.57 511.15 558.72 507.6 563.12 501.24C563.77 500.31 564.36 499.24 564.25 498.11C564.16 497.25 563.68 496.5 563.22 495.78C559.36 489.79 555.09 483.46 548.5 480.79C543.87 478.91 538.69 479.1 533.71 479.32C525.62 479.68 517.53 480.03 509.44 480.39C506.66 480.51 503.67 480.58 501.34 479.05C499.21 477.65 498.07 475.19 497.04 472.86C492.59 462.77 488.04 452.16 488.83 441.16C489.69 429.36 497.82 419.68 509.61 418.17C519.83 426.21 537.35 440.81 553.41 458.01C577.99 484.34 599.27 510.93 613.39 517.42C617.67 519.39 626.16 522.74 636.17 526.7C630.94 533.39 625.45 539.98 619.71 546.46Z" />
			<path id="&lt;Path&gt;" class="shp1" d="M655 478.71C655.81 483.11 658.7 486.79 661.57 490.22C656.94 497.74 652 505.19 646.76 512.53C643.35 517.3 639.82 522.03 636.17 526.7C626.16 522.74 617.67 519.39 613.39 517.42C599.27 510.93 577.99 484.34 553.41 458.01C537.35 440.81 519.83 426.21 509.61 418.17C509.72 418.15 509.82 418.13 509.93 418.11L511.43 410.5C512.93 402.89 517.89 400.52 564.57 402.8C611.25 405.07 588.21 424.23 582.74 441.98C581.14 447.15 578.03 452.11 576.72 457.31C575.33 462.86 579.81 469.19 584.08 472.61C584.75 473.14 585.48 473.65 586.34 473.76C588.9 474.1 590.34 470.94 590.97 468.43C594.63 453.71 599.66 439.19 607.61 426.27C610.3 421.9 614.23 417.26 619.35 417.55C621.71 417.69 623.85 418.88 625.9 420.05C634.78 425.11 643.66 430.16 652.54 435.22C655.79 437.07 659.2 439.07 661.12 442.29C664.38 447.75 662.33 454.77 659.7 460.56C657.07 466.35 653.84 472.46 655 478.71Z" />
		</g>
	</g>
</svg>