<svg version="1.2" baseProfile="tiny-ps" xmlns="http://www.w3.org/2000/svg" viewBox="0 0 722 707" width="722" height="707">
	<title>Landing Page Illustration-ai</title>
	<style>
		tspan { white-space:pre }
		.shp0 { fill: #1d3557 } 
		.shp1 { fill: #2b4d77 } 
	</style>
	<g id="Illustration">
		<g id="Leaf1">
			<path id="&lt;Path&gt;" class="shp0" d="M694.63 324.44C693.42 330.93 696.24 337.42 698.99 343.43C699.32 344.15 699.67 344.9 700.29 345.4C701.12 346.05 702.25 346.13 703.3 346.09C705.67 346 708.02 345.45 710.19 344.49C709 365.48 705.13 386.9 698.72 408.32C693.72 425.04 687.18 441.76 679.15 458.26C682.11 436.49 689.38 403.69 690.81 393.4C692.79 379.15 682.66 349.24 674.37 316.89C668.97 295.75 666.32 274.78 665.14 262.77C672.22 254.34 683.85 252.84 693.5 258.07C695.83 259.33 697.96 260.86 699.93 262.58C705.58 267.51 709.97 274.01 714.16 280.32C715.47 282.29 716.83 284.41 716.86 286.78C716.89 289.35 715.34 291.66 713.85 293.77C712.14 296.2 710.42 298.63 708.7 301.07C706.1 304.76 703.49 308.47 700.88 312.17C698.22 315.95 695.48 319.89 694.63 324.44Z" />
			<path id="&lt;Path&gt;" class="shp1" d="M690.81 393.4C689.38 403.69 682.11 436.49 679.15 458.26C676.96 462.77 674.66 467.26 672.24 471.73C664.78 485.57 656.27 499.21 646.76 512.53C652.55 499.41 655.02 484.82 654.92 470.42C654.81 452.45 650.87 434.68 645.49 417.53C644.24 413.53 642.8 409.38 639.75 406.52C635.44 402.49 629.04 401.95 623.21 401.11C617.36 400.27 610.86 398.36 608.22 393.09C606.66 389.97 606.81 386.32 606.99 382.84C607.48 373.39 607.97 363.93 608.46 354.48C608.57 352.29 608.71 350.02 609.78 348.11C612.11 343.97 617.7 343.22 622.46 343.31C636.53 343.56 650.4 346.9 663.74 351.41C666.01 352.18 669.2 352.63 670.22 350.46C670.55 349.74 670.52 348.91 670.44 348.12C669.91 343.08 667.21 336.41 662.17 334.73C657.44 333.15 652.03 333.09 647.18 331.76C630.57 327.15 604.07 335.55 625.64 297.98C647.2 260.42 651.54 257.73 658.24 260.36L664.94 263C665 262.92 665.08 262.85 665.14 262.77C666.32 274.78 668.97 295.75 674.37 316.89C682.66 349.24 692.79 379.15 690.81 393.4Z" />
		</g>
	</g>
</svg>